# xmcd CD database file
#
# Track frame offsets:
#	150
#	16240
#	33560
#	49458
#	59972
#	76015
#	89366
#	106740
#	123905
#	137896
#	149837
#	164075
#
# Disc length: 2350 seconds
#
# Revision: 3
# Processed by: cddbd v1.5.2PL0 Copyright (c) Steve Scherf et al.
# Submitted via: CDex 1.60beta1-cs1
#
DISCID=b0092c0c
DTITLE=Martina McBride - Everlasting
DYEAR=2014
DGENRE=Country
TTITLE0=Do Right Woman, Do Right Man
TTITLE1=Suspicious Minds
TTITLE2=If You Don't Know Me By Now
TTITLE3=Little Bit of Rain
TTITLE4=Bring it on Home to Me ( feat. Gavin DeGraw)
TTITLE5=Come See About Me
TTITLE6=What Becomes of the Brokenhearted
TTITLE7=I've Been Loving You Too Long
TTITLE8=Wild Night
TTITLE9=In the Basement ( feat. Kelly Clarkson)
TTITLE10=My Babe
TTITLE11=To Know Him is to Love Him
EXTD=YEAR: 2014
EXTT0=
EXTT1=
EXTT2=
EXTT3=
EXTT4=
EXTT5=
EXTT6=
EXTT7=
EXTT8=
EXTT9=
EXTT10=
EXTT11=
PLAYORDER=
